# xmcd
#
# Track frame offsets: 
#        150
#        28495
#        54738
#        73543
#        90992
#        114785
#        145622
#        163055
#        191026
#        207566
#        238257
#        267767
#
# Disc length: 3895 seconds
#
# Revision: 0
# Processed by: cddbd v1.5.2PL0 Copyright (c) Steve Scherf et al.
# Submitted via: ExactAudioCopyFreeDBPlugin 1.0
#
DISCID=ad0f350c
DTITLE=Joanne Shaw Taylor - Almost Always Never
DYEAR=1900
DGENRE=Blues
TTITLE0=Soul Station
TTITLE1=Beautifully Broken
TTITLE2=You Should Stay, I Should Go
TTITLE3=Piece of the Sky
TTITLE4=Army of One
TTITLE5=Jealousy
TTITLE6=Almost Always Never
TTITLE7=Tied and Bound
TTITLE8=A Hand in Love
TTITLE9=Standing to Fall
TTITLE10=Maybe Tomorrow
TTITLE11=Lose Myself to Loving You
EXTD=
EXTT0=
EXTT1=
EXTT2=
EXTT3=
EXTT4=
EXTT5=
EXTT6=
EXTT7=
EXTT8=
EXTT9=
EXTT10=
EXTT11=
PLAYORDER=
